<svg xmlns="http://www.w3.org/2000/svg" viewBox="0 0 334.9 336.3"><path d="M398.6,259.8c-26.9-.3-53.4-14.9-78.8-28.8-31.4-17.1-59.2-16.3-89.7,1-22,12.4-45.4,23.3-70.8,28a77.2,77.2,0,0,1-33.1-1.5c-16.4-4.1-22.7-13.6-16.1-30,3.6-8.9,7.5-17.6,10.3-26.7,6.8-21.8,19-30.2,41.2-19.4,6.1,3.1,13.6,6.8,20,.5s3-14-.2-20c-12.4-23.3-2.7-35.5,19.7-42.6a131.6,131.6,0,0,0,19.8-8.3c19-9.9,31.5-5.2,38.6,15.4,2.5,7.2,4.8,16.7,14.5,17.1s12.4-9.3,14.8-16.3c8.2-23.4,22.8-25.9,42.9-15.5a118.6,118.6,0,0,0,19.9,8.1c20.1,6.1,27,17.7,17.5,37.8-3.2,6.9-7.9,15.3-1.3,22.3s15.3,2.2,22.1-1.1c19.5-9.7,31.7-4.2,38.3,16.2,1.7,5.2,4.3,10.2,6.4,15.4C449.4,246.6,440.9,259.3,398.6,259.8Z" transform="translate(-107.5 -106.9)" style="fill:#fff"/><path d="M150.8,290.3c30,.1,55.6,14.6,80.3,28.1,31.3,17.1,59.3,17.4,89.5-.6,15-8.9,31.8-14.6,47.9-21.5s34-8.3,51.6-5.5c6,1,14.5,2.7,17.1,6.9,14.7,23.5-5.5,41.6-11.8,61.7-4.1,13.2-15,15-27.3,10.3a125.7,125.7,0,0,0-13.5-4.5c-15.9-3.8-20.7,2.4-16.7,17.8,9.1,34.7,8.9,34.7-23.2,48.4-5.1,2.2-10.4,4-15.3,6.6-18.2,9.4-30,4.3-37.2-14.8-2.8-7.8-4.9-18.6-16.4-17.6-9.3.8-11.6,10.4-14.1,17.6-7.1,21.2-20.3,24.2-38.9,15a162.5,162.5,0,0,0-22.1-9c-19.7-6.5-26.7-18.4-18-38.4,3-7,8.4-15.3,2-22.4s-16.6-1.7-24.1,1.6c-18.9,8.6-30.4,2.3-37.3-16-2-5.2-4.5-10.2-6.7-15.3C101.5,302.6,110.4,290,150.8,290.3Z" transform="translate(-107.5 -106.9)" style="fill:#fff"/><path d="M274.9,238c20.3-.6,36.9,14.5,37.9,34.5s-15.5,38.8-35.9,39.7-37.3-15.6-37.4-37.4S254.4,238.5,274.9,238Z" transform="translate(-107.5 -106.9)" style="fill:#fff"/></svg>